# xmcd
#
# Track frame offsets: 
#        150
#        12837
#        32845
#        49177
#        65975
#        86735
#        103845
#        123262
#        140695
#        155772
#        173025
#        189355
#        205197
#        219260
#        235312
#        251597
#        269447
#        286540
#        299630
#
# Disc length: 4216 seconds
#
# Revision: 1
# Processed by: cddbd v1.4PL0 Copyright (c) Steve Scherf et al.
# Submitted via: ExactAudioCopy v0.90b4
#
DISCID=22107613
DTITLE=LeAnn Rimes - Greatest Hits
DYEAR=2003
DGENRE=Country
TTITLE0=Blue
TTITLE1=How Do I Live
TTITLE2=Can't Fight The Moonlight (Graham Stack Radio Edit)
TTITLE3=One Way Ticket (Because I Can)
TTITLE4=Commitment
TTITLE5=I Need You
TTITLE6=Written In The Stars (Duet With Elton John)
TTITLE7=Unchained Melody
TTITLE8=The Light In Your Eyes
TTITLE9=On The Side Of Angels
TTITLE10=You Light Up My Life
TTITLE11=Nothin' New Under The Moon
TTITLE12=Big Deal
TTITLE13=Life Goes On
TTITLE14=We Can
TTITLE15=Last Thing On My Mind (Duet With Ronan Keating)
TTITLE16=This Love
TTITLE17=Crazy
TTITLE18=O Holy Night
EXTD=YEAR: 2003
EXTT0=
EXTT1=
EXTT2=
EXTT3=
EXTT4=
EXTT5=
EXTT6=
EXTT7=
EXTT8=
EXTT9=
EXTT10=
EXTT11=
EXTT12=
EXTT13=
EXTT14=
EXTT15=
EXTT16=
EXTT17=
EXTT18=
PLAYORDER=
